# Blender 4.0.2
# www.blender.org
mtllib window.mtl
o Boat_Window
v 0.259111 0.466431 1.290548
v 0.021992 0.466431 1.290548
v 0.021992 0.907894 0.847987
v 0.202386 0.907894 0.847987
v 0.263979 0.907894 0.847987
v 0.736543 0.907894 0.847987
v 0.320704 0.466431 1.290548
v 0.933734 0.466431 1.290548
v 0.777942 0.770111 0.215247
v 0.778755 0.902909 0.791903
v 0.972035 0.465645 1.229408
v 0.973232 0.503761 0.180473
v -0.258080 0.466431 1.290548
v -0.020960 0.466431 1.290548
v -0.020960 0.907894 0.847987
v -0.201354 0.907894 0.847987
v -0.262948 0.907894 0.847987
v -0.735511 0.907894 0.847987
v -0.319673 0.466431 1.290548
v -0.932703 0.466431 1.290548
v -0.776911 0.770111 0.215247
v -0.777724 0.902909 0.791903
v -0.971004 0.465645 1.229408
v -0.972201 0.503761 0.180473
v 0.235908 0.484994 1.187012
v 0.020065 0.484994 1.187012
v 0.020065 0.886845 0.784162
v 0.184272 0.886845 0.784162
v 0.240339 0.886845 0.784162
v 0.670501 0.886845 0.784162
v 0.291975 0.484994 1.187012
v 0.849998 0.484994 1.187012
v 0.708185 0.761425 0.208196
v 0.708925 0.882308 0.733110
v 0.884863 0.484278 1.131359
v 0.885952 0.518974 0.176543
v -0.234876 0.484994 1.187012
v -0.019033 0.484994 1.187012
v -0.019033 0.886845 0.784162
v -0.183241 0.886845 0.784162
v -0.239308 0.886845 0.784162
v -0.669469 0.886845 0.784162
v -0.290943 0.484994 1.187012
v -0.848967 0.484994 1.187012
v -0.707154 0.761425 0.208196
v -0.707894 0.882308 0.733110
v -0.883831 0.484278 1.131359
v -0.884921 0.518974 0.176543
vn 0.8816 0.4713 -0.0272
vn -0.0000 0.7080 0.7062
vn -0.8816 0.4713 -0.0272
vn -0.8816 -0.4713 0.0272
vn -0.0000 -0.7080 -0.7062
vn 0.8816 -0.4713 0.0272
vt 0.884075 0.350040
vt 0.879250 0.463035
vt 0.850393 0.455922
vt 0.836283 0.393711
vt 0.083901 0.740701
vt 0.083901 0.721047
vt 0.137071 0.720927
vt 0.137071 0.746761
vt 0.083901 0.798896
vt 0.083901 0.747411
vt 0.137071 0.753471
vt 0.137071 0.820259
vt 0.864081 0.794191
vt 0.816423 0.747303
vt 0.830534 0.684407
vt 0.859255 0.679965
vt 0.083901 0.696714
vt 0.137071 0.690414
vt 0.137071 0.716248
vt 0.083901 0.716368
vt 0.083901 0.638519
vt 0.137071 0.616916
vt 0.137071 0.683704
vt 0.083901 0.690004
vt 0.879868 0.601134
vt 0.835961 0.557596
vt 0.848803 0.500340
vt 0.875478 0.497163
vt 0.322391 0.642659
vt 0.366765 0.636781
vt 0.366765 0.660296
vt 0.322391 0.660549
vt 0.322391 0.589686
vt 0.366765 0.569878
vt 0.366765 0.630673
vt 0.322391 0.636551
vt 0.298179 0.801129
vt 0.293788 0.903949
vt 0.267232 0.903239
vt 0.254388 0.846586
vt 0.322391 0.682698
vt 0.322391 0.664808
vt 0.366765 0.664556
vt 0.366765 0.688071
vt 0.322391 0.735671
vt 0.322391 0.688806
vt 0.366765 0.694179
vt 0.366765 0.754974
s 1
usemtl Material.007
f 11/1/1 12/2/1 9/3/1 10/4/1
f 4/5/2 3/6/2 2/7/2 1/8/2
f 6/9/2 5/10/2 7/11/2 8/12/2
f 23/13/3 22/14/3 21/15/3 24/16/3
f 16/17/2 13/18/2 14/19/2 15/20/2
f 18/21/2 20/22/2 19/23/2 17/24/2
f 35/25/4 34/26/4 33/27/4 36/28/4
f 28/29/5 25/30/5 26/31/5 27/32/5
f 30/33/5 32/34/5 31/35/5 29/36/5
f 47/37/6 48/38/6 45/39/6 46/40/6
f 40/41/5 39/42/5 38/43/5 37/44/5
f 42/45/5 41/46/5 43/47/5 44/48/5
